<?xml version="1.0" encoding="UTF-8" standalone="no"?>
<svg
   xmlns:dc="http://purl.org/dc/elements/1.1/"
   xmlns:cc="http://creativecommons.org/ns#"
   xmlns:rdf="http://www.w3.org/1999/02/22-rdf-syntax-ns#"
   xmlns:svg="http://www.w3.org/2000/svg"
   xmlns="http://www.w3.org/2000/svg"
   version="1.1"
   width="168.6398"
   height="114.7841"
   id="svg849"
   viewBox="0 0 168.6398 114.7841">
  <metadata
     id="metadata855">
    <rdf:RDF>
      <cc:Work
         rdf:about="">
        <dc:format>image/svg+xml</dc:format>
        <dc:type
           rdf:resource="http://purl.org/dc/dcmitype/StillImage" />
        <dc:title></dc:title>
      </cc:Work>
    </rdf:RDF>
  </metadata>
  <defs
     id="defs853" />
  <path
     id="path26"
     d="M 84.6875 0 C 71.2356 0.01310729 56.77542 2.380955 42.66016 7.720703 C 25.46928 14.22378 11.87097 26.64521 10.83203 46.18945 C 10.81722 61.96408 19.35153 72.87712 32.02734 80.02734 C 51.25923 90.87521 78.55447 96.01217 100.2715 93.0918 C 129.1874 89.20353 157.9639 73.27739 158.043 40.64844 C 158.0986 17.14912 126.2676 6.518056 107.5195 2.386719 C 100.467 0.8325508 92.75864 -0.007864375 84.6875 0 z M 84.79297 2.220703 C 121.8384 2.49066 163.1448 18.07053 155.2188 50.78516 C 140.7809 110.3745 8.347373 102.165 13.34375 43.31836 C 14.47271 22.31372 37.75857 10.40065 55.85156 5.554688 C 64.38208 3.269833 74.42024 2.145115 84.79297 2.220703 z "
     style="fill:#e30016;fill-rule:evenodd" />
  <path
     id="path51"
     d="M 132.377 16.70508 C 132.1779 16.73569 132.0963 16.83541 131.9844 17.14453 C 130.4423 20.35932 126.933 26.52564 125.2051 29.51562 C 124.6156 30.44446 124.6794 30.86701 123.2285 31.32227 C 120.0862 32.30876 114.588 33.07987 111.1348 33.90234 C 110.429 34.07037 110.364 34.23146 109.9316 33.78125 C 107.9135 31.80382 96.9534 21.27823 95.68555 20.66992 C 94.74831 20.21987 95.0728 20.36661 94.0332 20.2168 L 89.97266 20.05859 C 89.15551 20.04987 88.8698 20.3607 88.47461 20.77734 C 82.98627 26.61446 77.62472 31.22768 72.29492 36.69336 C 70.68662 35.25934 69.63787 34.80217 67.0332 34.16797 C 68.60584 32.58589 70.97917 29.87082 72.23633 28.19922 C 72.92539 27.52212 72.68215 26.09425 71.4668 27.61719 C 70.3707 28.99048 66.80263 33.23036 65.875 33.85156 C 64.49359 32.54042 62.74687 29.51162 61.2168 27.83398 C 59.7486 26.22453 59.57896 27.66611 60.42969 28.56445 C 61.14596 29.32143 64.44701 33.45422 64.61328 34.16797 C 58.00976 35.04842 55.51488 40.94279 56.46484 46.10352 C 58.07506 54.85151 67.99327 53.20602 70.9668 59.38281 C 74.95841 67.67802 66.03772 81.9377 54.00977 71.60352 C 53.42642 71.02242 53.18994 71.59051 53.42188 72.2793 C 53.9987 73.99374 56.01418 75.21941 57.625 75.77539 C 59.09808 76.28386 60.28142 76.57422 61.98242 76.57422 C 70.02046 76.57422 71.52638 69.81554 71.97852 69.20898 C 71.94012 69.30158 71.75314 80.74138 71.65039 81.50977 C 71.56443 82.15033 71.63767 82.75971 72.13281 83.05078 C 74.50115 84.16037 76.85097 85.60728 79.13867 86.88281 C 81.03629 87.99696 82.1535 88.08736 84.14453 87.39062 C 99.25194 80.8526 120.8427 74.01982 138.1367 65.91602 C 140.3021 65.00671 140.061 64.79722 140.1738 62.47266 C 140.603 53.57293 141.8391 41.75399 141.6777 32.95898 C 141.6585 31.89306 141.7053 31.2164 141.4082 30.50781 C 139.5108 25.91206 137.0434 21.69265 134.6758 17.31445 C 134.6242 17.21105 134.5662 17.18592 134.4863 17.16211 C 133.6321 16.89693 133.0169 16.72269 132.377 16.70508 z M 65.30859 35.37891 C 67.24948 35.30713 69.31063 35.8653 71.20117 37.17188 C 71.6527 37.48412 72.09274 37.83737 72.18945 38.16602 C 72.58097 39.49476 71.97852 56.86473 71.97852 58.68555 C 71.51201 58.14915 70.9143 57.14235 70.375 56.60547 C 68.64294 54.88022 65.87205 53.52084 63.57617 52.67188 C 62.00693 52.09154 60.41772 50.98479 59.38477 49.70898 C 57.82946 47.78817 57.35156 46.37591 57.35156 43.74414 C 57.35156 38.74444 61.03863 35.53682 65.30859 35.37891 z "
     style="fill:#e30016;fill-rule:evenodd" />
  <path
     transform="matrix(0.5485702,0,0,0.5485702,-62.1996,-13.30968)"
     d="m 246.458,172.7023 c 0.018,1.0793 0.241,1.5578 0.7382,1.8501 3.0429,1.7199 7.4904,4.2809 10.7204,5.6495 1.6265,0.089 2.0307,-0.6886 1.719,-2.4885 1.271,-13.8687 0.4683,-60.4885 0.502,-80.9988 -0.155,-3.2594 0.7129,-3.7053 1.6881,-5.216 5.7209,-7.1498 16.0943,-19.1676 21.6839,-27.1106 1.048,-1.2208 0.6681,-1.6714 -0.6517,-1.6525 -1.0792,0.004 -4.6389,-0.1356 -6.1054,0.0135 -0.6004,0.0609 -0.5594,0.1027 -0.9927,0.4821 -9.2679,9.0005 -16.9675,18.5564 -26.7968,27.2169 -1.1497,1.2065 -1.1817,2.1625 -1.0264,4.6592 0.1412,12.974 -1.6199,59.334 -1.4786,77.5951 z"
     style="fill:#ffec00;fill-rule:evenodd"
     id="path75" />
  <path
     transform="matrix(0.5485702,0,0,0.5485702,-62.1996,-13.30968)"
     d="m 191.6035,83.8741 c -2.0015,-0.4353 -2.7635,1.5115 -0.3064,2.0116 5.2205,0.6092 14.7509,2.0986 20.2659,3.1279 0.5336,0.1024 0.7685,0.3758 0.5677,0.8774 -9.3739,18.4746 -20.8836,34.5497 -30.5437,52.2221 -0.9142,1.6727 -1.006,2.3479 0.687,3.4492 1.8609,1.2104 17.4504,8.8233 22.9693,10.7351 1.4472,0.7125 2.3439,-0.7466 0.9171,-1.6775 -0.044,-0.055 -18.8989,-9.3609 -21.0789,-10.3734 -0.965,-0.4914 -1.0318,-1.1154 -0.4451,-2.0534 6.3242,-9.805 26.482,-42.2049 30.4821,-53.0714 0.3877,-1.053 0.3003,-1.4859 -0.7123,-1.7032 -7.112,-1.5265 -15.5333,-2.4731 -22.8027,-3.5444 z"
     style="fill:#e30016;fill-rule:evenodd"
     id="path105" />
  <path
     transform="matrix(0.5485702,0,0,0.5485702,-62.1996,-13.30968)"
     d="m 181.6115,82.2798 c -5.5672,-1.0672 -12.6617,-2.8191 -18.4258,-3.6313 -1.4305,-0.2026 -1.5089,1.0375 -1.6808,2.0354 -1.0309,5.9868 -2.6424,10.984 -4.0413,16.8105 -0.3996,1.6689 -0.3404,2.0793 1.6781,2.3695 4.2397,0.6098 9.6515,0.621 12.496,3.6865 7.2239,7.7854 4.3403,22.3707 -8.4015,24.9538 -5.0961,1.033 -10.5359,0.2073 -14.1096,-4.4737 -1.1009,-2.0432 -3.4314,-2.4663 -2.4399,0.2356 4.3881,8.4903 21.7005,11.0064 28.7299,-2.2071 6.7456,-11.0274 1.2788,-22.596 -12.7131,-24.085 -1.3081,-0.1295 -2.5424,-0.4379 -2.0192,-2.0735 1.2352,-5.6259 2.3365,-8.8118 3.3492,-14.4269 0.062,-0.5649 0.4023,-0.7204 0.8752,-0.6257 2.9381,0.5429 13.6121,2.8466 15.411,3.0649 0.432,0.0527 0.8451,0.1275 1.253,0.1855 2.0863,0.2958 1.7406,-1.6269 0.039,-1.8185 z"
     style="fill:#e30016;fill-rule:evenodd"
     id="path129" />
  <path
     transform="matrix(0.5485702,0,0,0.5485702,-62.1996,-13.30968)"
     d="m 316.3425,88.3504 c 0.2925,0.3149 0.5856,0.5937 0.9472,0.8307 0.337,0.1833 0.6015,0.2116 1.6292,0.025 7.7635,-1.698 20.7956,-4.9536 25.0797,-6.3213 0.8417,-0.1896 0.9428,-0.6881 1.192,-1.3885 3.4187,-7.0283 9.2792,-15.2183 12.0568,-23.5707 0.06,-0.1801 0.081,-0.3262 0.032,-0.3977 -0.097,-0.1402 -1.1612,-0.5044 -1.8012,-0.7465 -0.4182,-0.1513 -0.5274,0.1704 -0.7115,0.6554 -3.6107,7.8045 -8.6808,15.5723 -12.7312,23.1867 -0.3734,0.9768 -1.0326,1.5349 -2.6301,1.9183 -4.578,1.1974 -18.7046,4.2996 -22.8712,5.2586 -0.2901,0.0733 -0.333,0.2434 -0.192,0.55 z"
     style="fill:#ffec00;fill-rule:evenodd"
     id="path141" />
  <path
     transform="matrix(0.5485702,0,0,0.5485702,-62.1996,-13.30968)"
     d="m 168.5717,135.557 c -0.583,1.3453 -0.417,4.4513 2.8177,3.7486 2.269,-0.4928 4.7325,-4.2904 3.1817,-6.5369 -2.763,-2.7089 -5.4431,0.5642 -5.9994,2.7883 z"
     style="fill:#e30016;fill-rule:evenodd"
     id="path165" />
  <path
     transform="matrix(0.5485702,0,0,0.5485702,-62.1996,-13.30968)"
     d="m 172.7943,135.9017 c 0.5463,-1.3165 0.3247,-3.8046 -1.7288,-2.1798 -2.9758,2.3521 0.1416,6.0011 1.7288,2.1798 z"
     style="fill:#ffffff;fill-rule:evenodd"
     id="path183" />
  <path
     transform="matrix(0.5485702,0,0,0.5485702,-62.1996,-13.30968)"
     d="m 278.9162,228.0927 c -1.8811,-3.8178 -7.3025,-17.8669 -8.5724,-20.2056 -0.9535,-2.0111 -2.2823,-1.8277 -2.2102,0.2855 0.6476,8.3193 0.8977,16.0417 1.0797,24.4628 0.1346,1.0262 1.4961,1.3449 1.525,-0.165 0.1033,-5.3054 -0.7484,-17.7764 -0.9302,-21.9011 1.7576,3.1423 6.9813,17.047 8.2793,20.1847 0.6419,1.7029 2.0863,1.7531 2.5471,-0.052 1.6761,-6.5604 4.9722,-14.5323 6.8041,-21.0541 0.3509,4.6334 0.6587,20.7012 0.7277,21.753 0,0.9509 1.197,1.5106 1.2783,-0.2653 0.1656,-8.469 -0.3714,-17.285 -0.7968,-24.7976 0.046,-0.9674 -1.0137,-1.8312 -1.4887,-0.1163 -2.3735,7.7481 -4.7966,14.8369 -7.4087,21.8479 -0.2357,0.771 -0.5326,0.7616 -0.8342,0.023 z"
     style="fill:#e30016;fill-rule:evenodd"
     id="path189" />
  <path
     transform="matrix(0.5485702,0,0,0.5485702,-62.1996,-13.30968)"
     d="m 146.1719,164.6992 c 0.8928,-1.6247 -0.5043,-1.9504 -1.5555,-0.7191 -5.2788,6.1831 -10.8302,12.0433 -16.046,18.1487 -0.6527,0.5226 -0.2019,1.8127 0.8181,0.8573 1.9965,-1.8075 7.4278,-7.6068 8.7339,-8.948 l 2.5739,0.1049 c -0.6109,5.215 -1.622,10.6302 -2.0348,15.7587 -0.1604,1.9941 0.9944,1.7841 1.2683,0.062 0.3958,-2.4822 2.3914,-14.5898 2.1009,-15.8233 2.4405,-0.2598 8.7468,-0.9136 12.691,-1.7626 1.1603,-0.398 0.7448,-1.3006 -0.5609,-1.1164 -5.189,0.7295 -9.5012,1.1802 -14.5971,1.5339 2.1641,-2.5334 4.7033,-5.3269 6.6082,-8.0958 z"
     style="fill:#e30016;fill-rule:evenodd"
     id="path213" />
  <path
     transform="matrix(0.5485702,0,0,0.5485702,-62.1996,-13.30968)"
     d="m 199.3363,196.1468 c 0.1192,-0.5789 0.3438,-0.6983 0.942,-0.4567 3.0958,0.9387 7.192,2.4139 9.8404,2.9956 1.3642,0.4166 1.6779,-0.5362 0.3729,-0.9828 -3.5235,-1.3726 -7.2742,-2.4139 -10.8678,-3.6194 -0.9293,-0.2222 -1.2537,0.3144 -1.4867,1.1173 -2.6168,7.6217 -5.7416,14.6939 -8.4337,22.194 -0.3964,1.3455 -0.3251,1.7905 0.3964,2.1744 0.2113,0.2096 11.4816,4.0048 12.4399,4.335 1.3537,0.4665 2.5667,-0.4817 0.1518,-1.3626 -3.3624,-1.2265 -7.8147,-2.6751 -11.2769,-3.9176 -0.4034,-0.145 -0.3243,-0.2904 -0.2199,-0.6815 0.7686,-2.9026 3.2887,-8.5113 4.4831,-11.6254 2.0341,0.7332 4.244,1.4761 6.2059,2.2438 0.9875,0.386 1.5379,-0.7048 0.3742,-1.1775 -1.5115,-0.7916 -4.3321,-1.7964 -5.9552,-2.3793 1.0663,-2.9714 2.0687,-5.8509 3.0336,-8.8573 z"
     style="fill:#e30016;fill-rule:evenodd"
     id="path237" />
  <path
     transform="matrix(0.5485702,0,0,0.5485702,-62.1996,-13.30968)"
     d="m 328.354,223.7581 c -0.7667,-1.3537 -11.2215,-18.7019 -12.577,-20.548 -0.7887,-1.0451 -1.7182,-0.3602 -1.1559,0.9388 2.7373,4.9609 10.2837,16.7627 12.9818,20.8667 0.9924,1.5999 2.3325,0.8685 2.5279,-0.5217 0.051,-0.081 2.3186,-20.5838 2.4071,-25.6801 -0.2046,-1.3814 -1.35,-1.3291 -1.443,0.077 -0.8396,8.5371 -1.1889,16.3851 -2.3933,24.8661 -0.056,0.3419 -0.2263,0.229 -0.3476,8e-4 z"
     style="fill:#e30016;fill-rule:evenodd"
     id="path261" />
  <path
     transform="matrix(0.5485702,0,0,0.5485702,-62.1996,-13.30968)"
     d="m 174.4673,209.0841 c 2.9124,-5.4571 7.0237,-13.7545 10.9503,-20.8544 0.2124,-0.796 -0.6838,-1.5167 -1.2022,-0.7696 -3.3793,5.5175 -9.0391,15.8738 -11.8853,21.5409 -0.3652,0.6841 -0.5399,1.3788 0.036,1.8074 1.4628,1.1292 7.3619,4.2272 9.4886,5.3103 1.7636,1.059 2.4607,-0.2242 0.7564,-1.2654 -2.1749,-1.4773 -5.2365,-3.0669 -7.9119,-4.6611 -0.3821,-0.3058 -0.6151,-0.4728 -0.2314,-1.1081 z"
     style="fill:#e30016;fill-rule:evenodd"
     id="path285" />
  <path
     transform="matrix(0.5485702,0,0,0.5485702,-62.1996,-13.30968)"
     d="m 373.9291,203.6321 c -3.596,-5.033 -9.2044,-12.4015 -13.8219,-19.0728 -0.6189,-0.5438 -1.6626,-0.061 -1.2234,0.7354 3.4427,5.4781 10.2081,15.1485 14.0217,20.2153 0.4507,0.631 0.9956,1.0961 1.6351,0.7709 1.6614,-0.8091 7.057,-4.7188 8.9719,-6.1432 1.732,-1.1098 0.8919,-2.3043 -0.7979,-1.2397 -2.2895,1.2926 -5.0734,3.3297 -7.6899,5.0188 -0.4437,0.2066 -0.6968,0.3411 -1.0956,-0.2847 z"
     style="fill:#e30016;fill-rule:evenodd"
     id="path309" />
  <path
     transform="matrix(0.5485702,0,0,0.5485702,-62.1996,-13.30968)"
     d="m 126.8746,157.9043 c 0.4312,4.8296 2.8148,11.5961 -4.9155,12.6368 -3.9677,0.5352 -7.5074,-3.9816 -7.4543,-7.6654 0.014,-0.9521 -0.8555,-1.3361 -1.1014,-0.3175 -0.3421,5.7254 4.1144,10.458 9.6796,9.5828 3.3009,-0.519 5.9534,-3.4063 6.3309,-7.0453 0.3922,-3.782 -1.5893,-6.8124 -1.1163,-9.9299 0.8106,-5.3511 6.8389,-6.942 7.7863,1.0252 0.3675,1.4866 1.5952,1.1623 1.4073,-0.5253 -0.3864,-3.441 -2.0708,-5.5979 -4.1662,-6.1371 -4.8656,-1.2523 -7.2571,4.602 -6.4504,8.3757 z"
     style="fill:#e30016;fill-rule:evenodd"
     id="path333" />
  <path
     transform="matrix(0.5485702,0,0,0.5485702,-62.1996,-13.30968)"
     d="m 253.6787,216.4841 c 3.4815,3.3749 9.7066,6.9407 4.5337,12.7787 -2.6544,2.9973 -8.2851,1.8899 -10.6514,-0.9339 -0.6112,-0.7302 -1.5206,-0.4527 -1.0413,0.4791 3.4813,4.5584 9.947,5.2301 13.5888,0.9319 2.1601,-2.5494 2.2822,-6.4682 0.1907,-9.4699 -2.1737,-3.1197 -5.6536,-4.1196 -7.3321,-6.7889 -2.8821,-4.5809 0.6428,-9.7237 6.5648,-4.3105 1.2494,0.8856 1.9671,-0.1621 0.7223,-1.317 -2.5404,-2.3528 -5.2248,-2.8854 -7.1635,-1.9248 -4.5019,2.2304 -2.4881,8.2251 0.588,10.5553 z"
     style="fill:#e30016;fill-rule:evenodd"
     id="path357" />
  <path
     transform="matrix(0.5485702,0,0,0.5485702,-62.1996,-13.30968)"
     d="m 350.9547,200.9473 c 4.8058,0.6442 11.9313,-0.189 11.242,7.5806 -0.3526,3.9881 -5.5387,6.4448 -9.1202,5.5808 -0.9255,-0.2238 -1.4919,0.5399 -0.5525,1.0044 5.5091,1.5959 11.1077,-1.7075 11.4811,-7.3287 0.2215,-3.3341 -2.0099,-6.5579 -5.4762,-7.7284 -3.6024,-1.2164 -6.9951,0.048 -9.9316,-1.1004 -5.0407,-1.9705 -5.2635,-8.2012 2.7166,-7.3687 1.5311,-0.031 1.4854,-1.2998 -0.2021,-1.4885 -3.4415,-0.3818 -5.9167,0.7857 -6.9047,2.7106 -2.2941,4.4698 2.8888,8.0931 6.7476,8.1383 z"
     style="fill:#e30016;fill-rule:evenodd"
     id="path381" />
  <path
     transform="matrix(0.5485702,0,0,0.5485702,-62.1996,-13.30968)"
     d="m 139.0452,148.0802 c 0.2847,-1.3807 0.6579,-2.4841 0.9116,-3.6546 0.2899,-1.0785 -0.7922,-1.6877 -1.1202,-0.3905 -0.2691,1.5572 -0.7065,3.3212 -1.2999,4.7933 -0.3847,0.9544 0.2621,1.3248 0.6773,1.2147 0.5648,-0.02 5.2141,-0.6915 6.1284,-1.0009 1.0207,-0.3457 0.8061,-1.1898 -0.2097,-1.0192 -1.1443,0.1919 -3.5975,0.7499 -4.8939,0.7134 -0.3256,0.01 -0.4405,-0.078 -0.1936,-0.6562 z"
     style="fill:#e30016;fill-rule:evenodd"
     id="path405" />
  <g
     transform="matrix(0.5485702,0,0,0.5485702,-62.1996,-13.30968)"
     id="Layer1001">
    <path
       d="m 299.0419,207.6824 c -0.1693,-0.5663 -0.028,-0.7778 0.6133,-0.8485 3.171,-0.6399 7.4772,-1.2813 10.0852,-2.0237 1.3987,-0.2794 1.2235,-1.2671 -0.1372,-1.0421 -3.7533,0.4604 -7.5497,1.3202 -11.2856,1.961 -0.9237,0.2446 -0.9552,0.8708 -0.78,1.6883 1.3063,7.9518 1.9048,15.6604 3.0871,23.5408 0.2883,1.3728 0.5619,1.7309 1.3791,1.7272 0.2854,0.085 12.0087,-1.9125 13.0091,-2.0756 1.4132,-0.2306 2.0322,-1.6403 -0.5118,-1.272 -3.5422,0.5128 -8.1494,1.3463 -11.7871,1.8923 -0.4239,0.063 -0.4232,-0.1021 -0.5165,-0.496 -0.6982,-2.9203 -1.136,-9.0536 -1.5594,-12.3619 2.1387,-0.318 4.4368,-0.7106 6.5283,-0.964 1.0525,-0.1279 1.0205,-1.3493 -0.2283,-1.2142 -1.7061,0.019 -4.6661,0.4702 -6.3717,0.7259 -0.4686,-3.122 -0.95,-6.1328 -1.5245,-9.2375 z"
       style="fill:#e30016;fill-rule:evenodd"
       id="path429" />
    <path
       d="m 302.5709,200.1019 c -1.0059,-0.9877 -1.7309,-1.8995 -2.5769,-2.7472 -0.7491,-0.8282 -1.8477,-0.2491 -0.9354,0.7298 1.1627,1.0701 2.4079,2.3939 3.3234,3.6906 0.5935,0.8406 1.2553,0.4979 1.3879,0.089 0.2891,-0.4856 2.2452,-4.7564 2.4808,-5.6924 0.2628,-1.0452 -0.5628,-1.3224 -0.9701,-0.3762 -0.459,1.0656 -1.3199,3.4295 -2.0533,4.4991 -0.1684,0.2789 -0.3048,0.3277 -0.6564,-0.1929 z"
       style="fill:#e30016;fill-rule:evenodd"
       id="path431" />
  </g>
  <g
     transform="matrix(0.5485702,0,0,0.5485702,-62.1996,-13.30968)"
     id="Layer1013">
    <path
       d="m 398.9781,166.2671 c 4.7936,-0.73 11.3991,-3.5289 12.9174,4.1219 0.7805,3.9269 -3.508,7.74 -7.188,7.9156 -0.9512,0.045 -1.2805,0.9368 -0.2486,1.119 5.7357,-0.014 10.1826,-4.7554 8.9638,-10.2556 -0.7229,-3.2623 -3.7692,-5.7305 -7.4246,-5.8815 -3.799,-0.1568 -6.7006,2.0089 -9.8415,1.7303 -5.3911,-0.477 -7.353,-6.395 0.54,-7.8349 1.461,-0.459 1.0611,-1.6643 -0.6116,-1.372 -3.4103,0.5991 -5.4586,2.4142 -5.8667,4.539 -0.948,4.9339 5.0434,6.9575 8.7598,5.9182 z"
       style="fill:#e30016;fill-rule:evenodd"
       id="path489" />
    <path
       d="m 388.4177,154.7296 c -1.3957,-0.1985 -2.5201,-0.5025 -3.7041,-0.6831 -1.0944,-0.2224 -1.6353,0.8954 -0.3202,1.1423 1.5708,0.1719 3.3586,0.499 4.8647,0.9999 0.9765,0.3248 1.306,-0.3437 1.1704,-0.7514 -0.055,-0.5624 -1.0138,-5.161 -1.3794,-6.0544 -0.4083,-0.9973 -1.2375,-0.7307 -1.0041,0.2726 0.2625,1.1302 0.9716,3.544 1.0156,4.8401 0.03,0.3244 -0.051,0.4446 -0.6429,0.234 z"
       style="fill:#e30016;fill-rule:evenodd"
       id="path491" />
  </g>
  <path
     transform="matrix(0.5485702,0,0,0.5485702,-62.1996,-13.30968)"
     d="m 399.3714,148.8711 c 6.1213,4.4037 14.6031,9.1193 19.7665,13.4793 1.7773,1.4993 2.271,-0.3589 0.7918,-1.508 -4.5261,-3.5142 -15.3414,-10.8716 -20.0315,-13.5532 -1.1383,-0.661 -2.1583,0.4498 -0.5268,1.5819 z"
     style="fill:#e30016;fill-rule:evenodd"
     id="path573" />
  <path
     transform="matrix(0.5485702,0,0,0.5485702,-62.1996,-13.30968)"
     d="m 396.1486,183.7382 c 0.5199,4.6695 -3.9419,8.1486 -8.4086,6.732 -5.1717,-2.0116 -13.0095,-13.0924 -14.7716,-14.6865 -1.3857,-1.0557 -1.9494,0.099 -1.0879,1.0765 3.6201,4.2821 11.1749,15.0798 18.0125,15.4814 4.873,0.2864 8.1005,-4.4589 7.8551,-8.4001 -0.5712,-6.6816 -7.3809,-14.2588 -11.23,-18.2318 -1.2779,-1.3191 -2.3587,-0.3756 -1.3145,0.8515 3.8624,4.4105 10.3149,11.5216 10.945,17.177 z"
     style="fill:#e30016;fill-rule:evenodd"
     id="path597" />
  <g
     transform="matrix(0.5485702,0,0,0.5485702,-62.1996,-13.30968)"
     id="Layer1025">
    <path
       d="m 236.9947,225.3744 c -3.0639,3.5619 -8.6504,2.6662 -10.6567,-1.5685 -2.051,-5.1562 0.7201,-18.4429 0.6865,-20.8188 -0.1713,-1.7336 -1.4006,-1.3596 -1.5292,-0.063 -0.6681,5.5673 -3.4248,18.454 0.9397,23.7327 3.1104,3.7621 8.7828,2.8916 11.5006,0.027 4.5017,-4.9703 5.4087,-15.1175 5.6946,-20.6418 0.095,-1.8341 -1.3321,-1.9824 -1.5189,-0.3821 -0.597,5.8322 -1.4062,15.4003 -5.1166,19.7146 z"
       style="fill:#e30016;fill-rule:evenodd"
       id="path621" />
    <path
       d="m 234.086,199.2886 c -0.7297,0.9756 0.1246,1.4566 0.6944,0.8041 0.3803,-0.1486 2.9661,-3.2776 3.5022,-4.005 0.6955,-0.8575 -0.1504,-1.3412 -0.8512,-0.6032 -0.9721,0.9805 -2.3964,2.5475 -3.3454,3.8041 z"
       style="fill:#e30016;fill-rule:evenodd"
       id="path623" />
  </g>
  <path
     transform="matrix(0.5485702,0,0,0.5485702,-62.1996,-13.30968)"
     d="m 396.3048,144.7251 c 0.6575,1.0257 1.4076,0.3945 0.9966,-0.3681 -0.01,-0.4082 -2.0283,-3.9276 -2.5213,-4.6848 -0.559,-0.9522 -1.3088,-0.3298 -0.8636,0.5853 0.577,1.2544 1.5445,3.138 2.3883,4.4676 z"
     style="fill:#e30016;fill-rule:evenodd"
     id="path681" />
  <path
     transform="matrix(0.5485702,0,0,0.5485702,-62.1996,-13.30968)"
     d="m 156.8161,177.2953 c -8.8023,4.023 -10.3787,15.3643 -6.9116,21.3434 5.2242,5.304 10.1993,6.2376 14.2554,4.3172 7.9647,-3.7713 11.3145,-16.2121 7.7155,-21.4772 -2.5456,-3.7228 -8.46,-7.196 -15.0593,-4.1834 z"
     style="fill:#e30016;fill-rule:evenodd"
     id="path705" />
  <path
     transform="matrix(0.5485702,0,0,0.5485702,-62.1996,-13.30968)"
     d="m 172.1506,189.76 c 2.0104,-9.9682 -9.0642,-14.1681 -14.9868,-11.5975 -10.4637,4.6726 -11.395,23.8547 3.0548,24.1887 7.5861,0.1748 10.836,-8.5149 11.932,-12.5912 z"
     style="fill:#ffec00;fill-rule:evenodd"
     id="path729" />
  <path
     transform="matrix(0.5485702,0,0,0.5485702,-62.1996,-13.30968)"
     d="m 315.8138,90.1576 c -6.5389,-5.4839 -20.1026,-18.7349 -27.2552,-24.637 -1.3189,-1.2318 -1.9811,-0.7894 -3.4181,0.5673 -1.7919,2.1299 -15.4268,20.4466 -21.0746,26.1708 -0.4422,0.6093 -1.7555,1.6311 -1.7018,3.3769 0.9245,26.0457 0.1782,56.5804 0.06,83.2077 -0.01,2.1882 0.711,2.3214 2.1267,1.7428 28.7685,-12.1774 68.1461,-24.2048 101.4994,-38.1497 1.1685,-0.4883 1.1013,-1.5401 1.252,-2.7757 0.3155,-16.2652 1.9547,-36.2907 2.7425,-52.3114 0,-4.3906 0.8844,-4.9946 -1.5764,-8.7953 -1.1801,-3.8903 -5.5599,-12.8689 -8.4796,-17.9131 -0.7118,-1.0267 -1.4664,-1.8134 -1.9876,-0.381 -2.447,6.7255 -7.001,13.6753 -10.5222,20.1037 -1.0328,1.886 -0.7694,3.3769 -3.3459,4.1669 -7.8818,1.7333 -16.572,3.571 -23.4692,5.9975 -1.5082,0.5306 -3.598,1.0769 -4.8501,-0.3704 z"
     style="fill:#ffec00;fill-rule:evenodd"
     id="path741" />
  <path
     transform="matrix(0.5485702,0,0,0.5485702,-62.1996,-13.30968)"
     d="m 298.1386,141.359 c -2.0885,-1.4446 -6.2745,-6.0992 -6.5713,-6.2815 -1.0313,-1.6873 -3.5356,-0.6598 -2.0738,1.2964 3.1769,4.2467 6.9651,7.9375 12.0157,9.863 13.0844,4.9849 30.7678,-5.4683 36.4063,-16.4171 2.1152,-3.517 -0.01,-4.0315 -1.4559,-0.948 -7.8779,12.5508 -26.2,20.8719 -38.321,12.4872 z"
     style="fill:#e30016;fill-rule:evenodd"
     id="path765" />
  <path
     transform="matrix(0.5485702,0,0,0.5485702,-62.1996,-13.30968)"
     d="m 283.4513,112.3101 c 0,9.1334 10.9339,7.3434 10.9339,-2.302 0,-11.1622 -10.9339,-5.389 -10.9339,2.302 z"
     style="fill:#e30016;fill-rule:evenodd"
     id="path789" />
  <path
     transform="matrix(0.5485702,0,0,0.5485702,-62.1996,-13.30968)"
     d="m 292.467,110.9675 c 0,-8.2583 -6.0785,-5.1199 -6.9936,0.1049 -1.3635,7.7794 6.9936,6.3278 6.9936,-0.1049 z"
     style="fill:#ffffff;fill-rule:evenodd"
     id="path807" />
  <path
     transform="matrix(0.5485702,0,0,0.5485702,-62.1996,-13.30968)"
     d="m 340.2227,100.604 c 0.1647,4.1955 3.8991,5.2162 6.7745,2.3586 3.4158,-4.2407 2.2796,-8.406 0.1885,-9.5222 -3.7217,-1.9868 -7.1051,3.5441 -6.963,7.1636 z"
     style="fill:#e30016;fill-rule:evenodd"
     id="path825" />
  <path
     transform="matrix(0.5485702,0,0,0.5485702,-62.1996,-13.30968)"
     d="m 343.6843,102.5271 c 4.1806,0 4.4914,-7.6729 1.5345,-7.6729 -2.6997,0 -5.2628,7.6729 -1.5345,7.6729 z"
     style="fill:#ffffff;fill-rule:evenodd"
     id="path843" />
</svg>
